<?xml version="1.0" encoding="UTF-8"?>
<svg xmlns="http://www.w3.org/2000/svg" xmlns:xlink="http://www.w3.org/1999/xlink" width="71.443pt" height="46.391pt" viewBox="0 0 71.443 46.391" version="1.1">
<defs>
<clipPath id="clip1">
  <path d="M 0 22 L 52 22 L 52 46.390625 L 0 46.390625 Z M 0 22 "/>
</clipPath>
<clipPath id="clip2">
  <path d="M 20 22 L 71.441406 22 L 71.441406 46.390625 L 20 46.390625 Z M 20 22 "/>
</clipPath>
<clipPath id="clip3">
  <path d="M 20 9 L 71.441406 9 L 71.441406 34 L 20 34 Z M 20 9 "/>
</clipPath>
<clipPath id="clip4">
  <path d="M 52 0 L 71.441406 0 L 71.441406 23 L 52 23 Z M 52 0 "/>
</clipPath>
</defs>
<g id="surface1">
<path style="fill:none;stroke-width:0.3985;stroke-linecap:butt;stroke-linejoin:miter;stroke:rgb(0%,0%,0%);stroke-opacity:1;stroke-miterlimit:10;" d="M -34.725906 -0.00025 C -34.725906 17.409906 9.922531 17.409906 9.922531 -0.00025 " transform="matrix(1,0,0,-1,35.722,28.281)"/>
<g clip-path="url(#clip1)" clip-rule="nonzero">
<path style="fill:none;stroke-width:0.3985;stroke-linecap:butt;stroke-linejoin:miter;stroke:rgb(0%,0%,0%);stroke-opacity:1;stroke-miterlimit:10;" d="M -34.725906 -0.00025 C -34.725906 -17.410406 9.922531 -17.410406 9.922531 -0.00025 " transform="matrix(1,0,0,-1,35.722,28.281)"/>
</g>
<g clip-path="url(#clip2)" clip-rule="nonzero">
<path style="fill:none;stroke-width:0.3985;stroke-linecap:butt;stroke-linejoin:miter;stroke:rgb(0%,0%,0%);stroke-opacity:1;stroke-miterlimit:10;" d="M -9.921219 -0.00025 C -9.921219 -17.410406 34.727219 -17.410406 34.727219 -0.00025 " transform="matrix(1,0,0,-1,35.722,28.281)"/>
</g>
<g clip-path="url(#clip3)" clip-rule="nonzero">
<path style="fill:none;stroke-width:0.3985;stroke-linecap:butt;stroke-linejoin:miter;stroke:rgb(0%,0%,0%);stroke-opacity:1;stroke-miterlimit:10;" d="M -9.921219 -0.00025 C -9.921219 17.409906 34.727219 17.409906 34.727219 -0.00025 " transform="matrix(1,0,0,-1,35.722,28.281)"/>
</g>
<path style="fill:none;stroke-width:0.3985;stroke-linecap:butt;stroke-linejoin:miter;stroke:rgb(0%,0%,0%);stroke-opacity:1;stroke-miterlimit:10;" d="M -14.882156 27.284906 C -18.042313 24.12475 -19.843094 17.366937 -19.843094 12.898187 " transform="matrix(1,0,0,-1,35.722,28.281)"/>
<g clip-path="url(#clip4)" clip-rule="nonzero">
<path style="fill:none;stroke-width:0.3985;stroke-linecap:butt;stroke-linejoin:miter;stroke:rgb(0%,0%,0%);stroke-opacity:1;stroke-miterlimit:10;" d="M 22.324875 11.409906 C 22.324875 16.554437 25.30925 24.714594 29.766281 27.284906 " transform="matrix(1,0,0,-1,35.722,28.281)"/>
</g>
</g>
</svg>
