<?xml version="1.0" encoding="UTF-8"?>
<svg xmlns="http://www.w3.org/2000/svg" xmlns:xlink="http://www.w3.org/1999/xlink" width="191.563pt" height="125.948pt" viewBox="0 0 191.563 125.948" version="1.1">
<defs>
<clipPath id="clip1">
  <path d="M 14 115 L 24 115 L 24 125.949219 L 14 125.949219 Z M 14 115 "/>
</clipPath>
<clipPath id="clip2">
  <path d="M 8 110 L 30 110 L 30 125.949219 L 8 125.949219 Z M 8 110 "/>
</clipPath>
<clipPath id="clip3">
  <path d="M 120 115 L 130 115 L 130 125.949219 L 120 125.949219 Z M 120 115 "/>
</clipPath>
<clipPath id="clip4">
  <path d="M 114 110 L 136 110 L 136 125.949219 L 114 125.949219 Z M 114 110 "/>
</clipPath>
<clipPath id="clip5">
  <path d="M 153 115 L 164 115 L 164 125.949219 L 153 125.949219 Z M 153 115 "/>
</clipPath>
<clipPath id="clip6">
  <path d="M 148 110 L 170 110 L 170 125.949219 L 148 125.949219 Z M 148 110 "/>
</clipPath>
<clipPath id="clip7">
  <path d="M 169 115 L 180 115 L 180 125.949219 L 169 125.949219 Z M 169 115 "/>
</clipPath>
<clipPath id="clip8">
  <path d="M 164 110 L 185 110 L 185 125.949219 L 164 125.949219 Z M 164 110 "/>
</clipPath>
</defs>
<g id="surface1">
<path style="fill:none;stroke-width:0.3985;stroke-linecap:butt;stroke-linejoin:miter;stroke:rgb(0%,0%,0%);stroke-opacity:1;stroke-miterlimit:10;" d="M 11.047594 15.944906 L -50.026625 15.944906 " transform="matrix(1,0,0,-1,73.636,60.316)"/>
<path style="fill:none;stroke-width:0.3985;stroke-linecap:butt;stroke-linejoin:miter;stroke:rgb(0%,0%,0%);stroke-opacity:1;stroke-miterlimit:10;" d="M -50.026625 -1.769937 L -42.100844 -1.769937 " transform="matrix(1,0,0,-1,73.636,60.316)"/>
<path style="fill:none;stroke-width:0.3985;stroke-linecap:butt;stroke-linejoin:miter;stroke:rgb(0%,0%,0%);stroke-opacity:1;stroke-miterlimit:10;" d="M -6.66725 54.921469 L -50.026625 54.921469 " transform="matrix(1,0,0,-1,73.636,60.316)"/>
<path style="fill:none;stroke-width:0.3985;stroke-linecap:butt;stroke-linejoin:miter;stroke:rgb(0%,0%,0%);stroke-opacity:1;stroke-miterlimit:10;" d="M -72.639906 54.921469 L -59.815687 54.921469 " transform="matrix(1,0,0,-1,73.636,60.316)"/>
<path style="fill:none;stroke-width:0.3985;stroke-linecap:butt;stroke-linejoin:miter;stroke:rgb(0%,0%,0%);stroke-opacity:1;stroke-miterlimit:10;" d="M -50.026625 -40.750406 L 116.930406 -40.750406 " transform="matrix(1,0,0,-1,73.636,60.316)"/>
<path style="fill:none;stroke-width:0.3985;stroke-linecap:butt;stroke-linejoin:miter;stroke:rgb(0%,0%,0%);stroke-opacity:1;stroke-miterlimit:10;" d="M -32.307875 -1.769937 L 116.930406 -1.769937 " transform="matrix(1,0,0,-1,73.636,60.316)"/>
<path style="fill:none;stroke-width:0.3985;stroke-linecap:butt;stroke-linejoin:miter;stroke:rgb(0%,0%,0%);stroke-opacity:1;stroke-miterlimit:10;" d="M -50.026625 -60.238687 L 116.930406 -60.238687 " transform="matrix(1,0,0,-1,73.636,60.316)"/>
<path style="fill:none;stroke-width:0.3985;stroke-linecap:butt;stroke-linejoin:miter;stroke:rgb(0%,0%,0%);stroke-opacity:1;stroke-miterlimit:10;" d="M 3.125719 54.921469 L 116.930406 54.921469 " transform="matrix(1,0,0,-1,73.636,60.316)"/>
<path style="fill:none;stroke-width:0.3985;stroke-linecap:butt;stroke-linejoin:miter;stroke:rgb(0%,0%,0%);stroke-opacity:1;stroke-miterlimit:10;" d="M 20.840563 15.944906 L 116.930406 15.944906 " transform="matrix(1,0,0,-1,73.636,60.316)"/>
<path style="fill:none;stroke-width:0.3985;stroke-linecap:butt;stroke-linejoin:miter;stroke:rgb(0%,0%,0%);stroke-opacity:1;stroke-miterlimit:10;" d="M -37.206312 50.026938 L -37.206312 3.124594 " transform="matrix(1,0,0,-1,73.636,60.316)"/>
<path style="fill:none;stroke-width:0.3985;stroke-linecap:butt;stroke-linejoin:miter;stroke:rgb(0%,0%,0%);stroke-opacity:1;stroke-miterlimit:10;" d="M -19.487562 -16.363687 L -19.487562 50.026938 " transform="matrix(1,0,0,-1,73.636,60.316)"/>
<path style="fill:none;stroke-width:0.3985;stroke-linecap:butt;stroke-linejoin:miter;stroke:rgb(0%,0%,0%);stroke-opacity:1;stroke-miterlimit:10;" d="M -50.026625 35.433188 L 116.930406 35.433188 " transform="matrix(1,0,0,-1,73.636,60.316)"/>
<path style="fill:none;stroke-width:0.3985;stroke-linecap:butt;stroke-linejoin:miter;stroke:rgb(0%,0%,0%);stroke-opacity:1;stroke-miterlimit:10;" d="M 15.946031 30.538656 L 15.946031 20.839438 " transform="matrix(1,0,0,-1,73.636,60.316)"/>
<path style="fill:none;stroke-width:0.3985;stroke-linecap:butt;stroke-linejoin:miter;stroke:rgb(0%,0%,0%);stroke-opacity:1;stroke-miterlimit:10;" d="M -1.772719 50.026938 L -1.772719 20.839438 " transform="matrix(1,0,0,-1,73.636,60.316)"/>
<path style="fill:none;stroke-width:0.3985;stroke-linecap:butt;stroke-linejoin:miter;stroke:rgb(0%,0%,0%);stroke-opacity:1;stroke-miterlimit:10;" d="M 33.660875 -35.851969 L 33.660875 30.538656 " transform="matrix(1,0,0,-1,73.636,60.316)"/>
<path style="fill:none;stroke-width:0.3985;stroke-linecap:butt;stroke-linejoin:miter;stroke:rgb(0%,0%,0%);stroke-opacity:1;stroke-miterlimit:10;" d="M 69.094469 11.050375 L 69.094469 -16.363687 " transform="matrix(1,0,0,-1,73.636,60.316)"/>
<path style="fill:none;stroke-width:0.3985;stroke-linecap:butt;stroke-linejoin:miter;stroke:rgb(0%,0%,0%);stroke-opacity:1;stroke-miterlimit:10;" d="M 15.946031 -6.668375 L 15.946031 -16.363687 " transform="matrix(1,0,0,-1,73.636,60.316)"/>
<path style="fill:none;stroke-width:0.3985;stroke-linecap:butt;stroke-linejoin:miter;stroke:rgb(0%,0%,0%);stroke-opacity:1;stroke-miterlimit:10;" d="M -1.772719 -6.668375 L -1.772719 -35.851969 " transform="matrix(1,0,0,-1,73.636,60.316)"/>
<path style="fill:none;stroke-width:0.3985;stroke-linecap:butt;stroke-linejoin:miter;stroke:rgb(0%,0%,0%);stroke-opacity:1;stroke-miterlimit:10;" d="M 51.379625 30.538656 L 51.379625 -55.34025 " transform="matrix(1,0,0,-1,73.636,60.316)"/>
<path style="fill:none;stroke-width:0.3985;stroke-linecap:butt;stroke-linejoin:miter;stroke:rgb(0%,0%,0%);stroke-opacity:1;stroke-miterlimit:10;" d="M 85.039781 11.050375 L 85.039781 -55.34025 " transform="matrix(1,0,0,-1,73.636,60.316)"/>
<path style="fill:none;stroke-width:0.3985;stroke-linecap:butt;stroke-linejoin:miter;stroke:rgb(0%,0%,0%);stroke-opacity:1;stroke-miterlimit:10;" d="M 100.985094 -6.668375 L 100.985094 -55.34025 " transform="matrix(1,0,0,-1,73.636,60.316)"/>
<path style="fill:none;stroke-width:0.3985;stroke-linecap:butt;stroke-linejoin:miter;stroke:rgb(0%,0%,0%);stroke-opacity:1;stroke-miterlimit:10;" d="M -50.026625 -21.258219 L 116.930406 -21.258219 " transform="matrix(1,0,0,-1,73.636,60.316)"/>
<path style="fill-rule:nonzero;fill:rgb(90.979004%,64.704895%,64.704895%);fill-opacity:1;stroke-width:0.3985;stroke-linecap:butt;stroke-linejoin:miter;stroke:rgb(0%,0%,0%);stroke-opacity:1;stroke-miterlimit:10;" d="M 2.9265 54.921469 C 2.9265 57.515219 0.821031 59.616781 -1.772719 59.616781 C -4.366469 59.616781 -6.468031 57.515219 -6.468031 54.921469 C -6.468031 52.327719 -4.366469 50.226156 -1.772719 50.226156 C 0.821031 50.226156 2.9265 52.327719 2.9265 54.921469 Z M 2.9265 54.921469 " transform="matrix(1,0,0,-1,73.636,60.316)"/>
<path style="fill-rule:nonzero;fill:rgb(90.979004%,64.704895%,64.704895%);fill-opacity:1;stroke-width:0.3985;stroke-linecap:butt;stroke-linejoin:miter;stroke:rgb(0%,0%,0%);stroke-opacity:1;stroke-miterlimit:10;" d="M 20.641344 15.944906 C 20.641344 18.538656 18.539781 20.640219 15.946031 20.640219 C 13.352281 20.640219 11.246813 18.538656 11.246813 15.944906 C 11.246813 13.351156 13.352281 11.249594 15.946031 11.249594 C 18.539781 11.249594 20.641344 13.351156 20.641344 15.944906 Z M 20.641344 15.944906 " transform="matrix(1,0,0,-1,73.636,60.316)"/>
<path style="fill-rule:nonzero;fill:rgb(90.979004%,64.704895%,64.704895%);fill-opacity:1;stroke-width:0.3985;stroke-linecap:butt;stroke-linejoin:miter;stroke:rgb(0%,0%,0%);stroke-opacity:1;stroke-miterlimit:10;" d="M -32.507094 -1.769937 C -32.507094 0.823813 -34.612562 2.925375 -37.206312 2.925375 C -39.800062 2.925375 -41.901625 0.823813 -41.901625 -1.769937 C -41.901625 -4.363687 -39.800062 -6.469156 -37.206312 -6.469156 C -34.612562 -6.469156 -32.507094 -4.363687 -32.507094 -1.769937 Z M -32.507094 -1.769937 " transform="matrix(1,0,0,-1,73.636,60.316)"/>
<path style="fill-rule:nonzero;fill:rgb(90.979004%,64.704895%,64.704895%);fill-opacity:1;stroke-width:0.3985;stroke-linecap:butt;stroke-linejoin:miter;stroke:rgb(0%,0%,0%);stroke-opacity:1;stroke-miterlimit:10;" d="M 20.641344 -21.258219 C 20.641344 -18.664469 18.539781 -16.562906 15.946031 -16.562906 C 13.352281 -16.562906 11.246813 -18.664469 11.246813 -21.258219 C 11.246813 -23.851969 13.352281 -25.957437 15.946031 -25.957437 C 18.539781 -25.957437 20.641344 -23.851969 20.641344 -21.258219 Z M 20.641344 -21.258219 " transform="matrix(1,0,0,-1,73.636,60.316)"/>
<path style="fill-rule:nonzero;fill:rgb(90.979004%,64.704895%,64.704895%);fill-opacity:1;stroke-width:0.3985;stroke-linecap:butt;stroke-linejoin:miter;stroke:rgb(0%,0%,0%);stroke-opacity:1;stroke-miterlimit:10;" d="M -50.225844 -40.750406 C -50.225844 -38.156656 -52.327406 -36.051187 -54.921156 -36.051187 C -57.514906 -36.051187 -59.616469 -38.156656 -59.616469 -40.750406 C -59.616469 -43.344156 -57.514906 -45.445719 -54.921156 -45.445719 C -52.327406 -45.445719 -50.225844 -43.344156 -50.225844 -40.750406 Z M -50.225844 -40.750406 " transform="matrix(1,0,0,-1,73.636,60.316)"/>
<g clip-path="url(#clip1)" clip-rule="nonzero">
<path style=" stroke:none;fill-rule:nonzero;fill:rgb(90.979004%,64.704895%,64.704895%);fill-opacity:1;" d="M 23.410156 120.554688 C 23.410156 117.960938 21.308594 115.855469 18.714844 115.855469 C 16.121094 115.855469 14.019531 117.960938 14.019531 120.554688 C 14.019531 123.148438 16.121094 125.25 18.714844 125.25 C 21.308594 125.25 23.410156 123.148438 23.410156 120.554688 Z M 23.410156 120.554688 "/>
</g>
<g clip-path="url(#clip2)" clip-rule="nonzero">
<path style="fill:none;stroke-width:0.3985;stroke-linecap:butt;stroke-linejoin:miter;stroke:rgb(0%,0%,0%);stroke-opacity:1;stroke-miterlimit:10;" d="M -50.225844 -60.238687 C -50.225844 -57.644937 -52.327406 -55.539469 -54.921156 -55.539469 C -57.514906 -55.539469 -59.616469 -57.644937 -59.616469 -60.238687 C -59.616469 -62.832437 -57.514906 -64.934 -54.921156 -64.934 C -52.327406 -64.934 -50.225844 -62.832437 -50.225844 -60.238687 Z M -50.225844 -60.238687 " transform="matrix(1,0,0,-1,73.636,60.316)"/>
</g>
<path style="fill-rule:nonzero;fill:rgb(84.70459%,97.254944%,84.70459%);fill-opacity:1;stroke-width:0.3985;stroke-linecap:butt;stroke-linejoin:miter;stroke:rgb(0%,0%,0%);stroke-opacity:1;stroke-miterlimit:10;" d="M -50.225844 35.433188 C -50.225844 38.026938 -52.327406 40.1285 -54.921156 40.1285 C -57.514906 40.1285 -59.616469 38.026938 -59.616469 35.433188 C -59.616469 32.839438 -57.514906 30.737875 -54.921156 30.737875 C -52.327406 30.737875 -50.225844 32.839438 -50.225844 35.433188 Z M -50.225844 35.433188 " transform="matrix(1,0,0,-1,73.636,60.316)"/>
<path style="fill-rule:nonzero;fill:rgb(84.70459%,97.254944%,84.70459%);fill-opacity:1;stroke-width:0.3985;stroke-linecap:butt;stroke-linejoin:miter;stroke:rgb(0%,0%,0%);stroke-opacity:1;stroke-miterlimit:10;" d="M -50.225844 15.944906 C -50.225844 18.538656 -52.327406 20.640219 -54.921156 20.640219 C -57.514906 20.640219 -59.616469 18.538656 -59.616469 15.944906 C -59.616469 13.351156 -57.514906 11.249594 -54.921156 11.249594 C -52.327406 11.249594 -50.225844 13.351156 -50.225844 15.944906 Z M -50.225844 15.944906 " transform="matrix(1,0,0,-1,73.636,60.316)"/>
<path style="fill-rule:nonzero;fill:rgb(84.70459%,97.254944%,84.70459%);fill-opacity:1;stroke-width:0.3985;stroke-linecap:butt;stroke-linejoin:miter;stroke:rgb(0%,0%,0%);stroke-opacity:1;stroke-miterlimit:10;" d="M -50.225844 -1.769937 C -50.225844 0.823813 -52.327406 2.925375 -54.921156 2.925375 C -57.514906 2.925375 -59.616469 0.823813 -59.616469 -1.769937 C -59.616469 -4.363687 -57.514906 -6.469156 -54.921156 -6.469156 C -52.327406 -6.469156 -50.225844 -4.363687 -50.225844 -1.769937 Z M -50.225844 -1.769937 " transform="matrix(1,0,0,-1,73.636,60.316)"/>
<path style="fill-rule:nonzero;fill:rgb(84.70459%,97.254944%,84.70459%);fill-opacity:1;stroke-width:0.3985;stroke-linecap:butt;stroke-linejoin:miter;stroke:rgb(0%,0%,0%);stroke-opacity:1;stroke-miterlimit:10;" d="M -50.225844 54.921469 C -50.225844 57.515219 -52.327406 59.616781 -54.921156 59.616781 C -57.514906 59.616781 -59.616469 57.515219 -59.616469 54.921469 C -59.616469 52.327719 -57.514906 50.226156 -54.921156 50.226156 C -52.327406 50.226156 -50.225844 52.327719 -50.225844 54.921469 Z M -50.225844 54.921469 " transform="matrix(1,0,0,-1,73.636,60.316)"/>
<path style="fill-rule:nonzero;fill:rgb(84.70459%,97.254944%,84.70459%);fill-opacity:1;stroke-width:0.3985;stroke-linecap:butt;stroke-linejoin:miter;stroke:rgb(0%,0%,0%);stroke-opacity:1;stroke-miterlimit:10;" d="M -32.507094 54.921469 C -32.507094 57.515219 -34.612562 59.616781 -37.206312 59.616781 C -39.800062 59.616781 -41.901625 57.515219 -41.901625 54.921469 C -41.901625 52.327719 -39.800062 50.226156 -37.206312 50.226156 C -34.612562 50.226156 -32.507094 52.327719 -32.507094 54.921469 Z M -32.507094 54.921469 " transform="matrix(1,0,0,-1,73.636,60.316)"/>
<path style="fill-rule:nonzero;fill:rgb(84.70459%,97.254944%,84.70459%);fill-opacity:1;stroke-width:0.3985;stroke-linecap:butt;stroke-linejoin:miter;stroke:rgb(0%,0%,0%);stroke-opacity:1;stroke-miterlimit:10;" d="M -14.79225 54.921469 C -14.79225 57.515219 -16.893812 59.616781 -19.487562 59.616781 C -22.081312 59.616781 -24.182875 57.515219 -24.182875 54.921469 C -24.182875 52.327719 -22.081312 50.226156 -19.487562 50.226156 C -16.893812 50.226156 -14.79225 52.327719 -14.79225 54.921469 Z M -14.79225 54.921469 " transform="matrix(1,0,0,-1,73.636,60.316)"/>
<path style="fill-rule:nonzero;fill:rgb(90.979004%,64.704895%,64.704895%);fill-opacity:1;stroke-width:0.3985;stroke-linecap:butt;stroke-linejoin:miter;stroke:rgb(0%,0%,0%);stroke-opacity:1;stroke-miterlimit:10;" d="M -14.79225 -21.258219 C -14.79225 -18.664469 -16.893812 -16.562906 -19.487562 -16.562906 C -22.081312 -16.562906 -24.182875 -18.664469 -24.182875 -21.258219 C -24.182875 -23.851969 -22.081312 -25.957437 -19.487562 -25.957437 C -16.893812 -25.957437 -14.79225 -23.851969 -14.79225 -21.258219 Z M -14.79225 -21.258219 " transform="matrix(1,0,0,-1,73.636,60.316)"/>
<path style="fill-rule:nonzero;fill:rgb(84.70459%,97.254944%,84.70459%);fill-opacity:1;stroke-width:0.3985;stroke-linecap:butt;stroke-linejoin:miter;stroke:rgb(0%,0%,0%);stroke-opacity:1;stroke-miterlimit:10;" d="M 20.641344 35.433188 C 20.641344 38.026938 18.539781 40.1285 15.946031 40.1285 C 13.352281 40.1285 11.246813 38.026938 11.246813 35.433188 C 11.246813 32.839438 13.352281 30.737875 15.946031 30.737875 C 18.539781 30.737875 20.641344 32.839438 20.641344 35.433188 Z M 20.641344 35.433188 " transform="matrix(1,0,0,-1,73.636,60.316)"/>
<path style="fill-rule:nonzero;fill:rgb(84.70459%,97.254944%,84.70459%);fill-opacity:1;stroke-width:0.3985;stroke-linecap:butt;stroke-linejoin:miter;stroke:rgb(0%,0%,0%);stroke-opacity:1;stroke-miterlimit:10;" d="M 2.9265 15.944906 C 2.9265 18.538656 0.821031 20.640219 -1.772719 20.640219 C -4.366469 20.640219 -6.468031 18.538656 -6.468031 15.944906 C -6.468031 13.351156 -4.366469 11.249594 -1.772719 11.249594 C 0.821031 11.249594 2.9265 13.351156 2.9265 15.944906 Z M 2.9265 15.944906 " transform="matrix(1,0,0,-1,73.636,60.316)"/>
<path style="fill-rule:nonzero;fill:rgb(84.70459%,97.254944%,84.70459%);fill-opacity:1;stroke-width:0.3985;stroke-linecap:butt;stroke-linejoin:miter;stroke:rgb(0%,0%,0%);stroke-opacity:1;stroke-miterlimit:10;" d="M 38.356188 35.433188 C 38.356188 38.026938 36.254625 40.1285 33.660875 40.1285 C 31.067125 40.1285 28.965563 38.026938 28.965563 35.433188 C 28.965563 32.839438 31.067125 30.737875 33.660875 30.737875 C 36.254625 30.737875 38.356188 32.839438 38.356188 35.433188 Z M 38.356188 35.433188 " transform="matrix(1,0,0,-1,73.636,60.316)"/>
<path style="fill-rule:nonzero;fill:rgb(90.979004%,64.704895%,64.704895%);fill-opacity:1;stroke-width:0.3985;stroke-linecap:butt;stroke-linejoin:miter;stroke:rgb(0%,0%,0%);stroke-opacity:1;stroke-miterlimit:10;" d="M 38.356188 -40.750406 C 38.356188 -38.156656 36.254625 -36.051187 33.660875 -36.051187 C 31.067125 -36.051187 28.965563 -38.156656 28.965563 -40.750406 C 28.965563 -43.344156 31.067125 -45.445719 33.660875 -45.445719 C 36.254625 -45.445719 38.356188 -43.344156 38.356188 -40.750406 Z M 38.356188 -40.750406 " transform="matrix(1,0,0,-1,73.636,60.316)"/>
<path style="fill-rule:nonzero;fill:rgb(84.70459%,97.254944%,84.70459%);fill-opacity:1;stroke-width:0.3985;stroke-linecap:butt;stroke-linejoin:miter;stroke:rgb(0%,0%,0%);stroke-opacity:1;stroke-miterlimit:10;" d="M 73.789781 15.944906 C 73.789781 18.538656 71.688219 20.640219 69.094469 20.640219 C 66.500719 20.640219 64.399156 18.538656 64.399156 15.944906 C 64.399156 13.351156 66.500719 11.249594 69.094469 11.249594 C 71.688219 11.249594 73.789781 13.351156 73.789781 15.944906 Z M 73.789781 15.944906 " transform="matrix(1,0,0,-1,73.636,60.316)"/>
<path style="fill-rule:nonzero;fill:rgb(90.979004%,64.704895%,64.704895%);fill-opacity:1;stroke-width:0.3985;stroke-linecap:butt;stroke-linejoin:miter;stroke:rgb(0%,0%,0%);stroke-opacity:1;stroke-miterlimit:10;" d="M 73.789781 -21.258219 C 73.789781 -18.664469 71.688219 -16.562906 69.094469 -16.562906 C 66.500719 -16.562906 64.399156 -18.664469 64.399156 -21.258219 C 64.399156 -23.851969 66.500719 -25.957437 69.094469 -25.957437 C 71.688219 -25.957437 73.789781 -23.851969 73.789781 -21.258219 Z M 73.789781 -21.258219 " transform="matrix(1,0,0,-1,73.636,60.316)"/>
<path style="fill-rule:nonzero;fill:rgb(84.70459%,97.254944%,84.70459%);fill-opacity:1;stroke-width:0.3985;stroke-linecap:butt;stroke-linejoin:miter;stroke:rgb(0%,0%,0%);stroke-opacity:1;stroke-miterlimit:10;" d="M 20.641344 -1.769937 C 20.641344 0.823813 18.539781 2.925375 15.946031 2.925375 C 13.352281 2.925375 11.246813 0.823813 11.246813 -1.769937 C 11.246813 -4.363687 13.352281 -6.469156 15.946031 -6.469156 C 18.539781 -6.469156 20.641344 -4.363687 20.641344 -1.769937 Z M 20.641344 -1.769937 " transform="matrix(1,0,0,-1,73.636,60.316)"/>
<path style="fill-rule:nonzero;fill:rgb(84.70459%,97.254944%,84.70459%);fill-opacity:1;stroke-width:0.3985;stroke-linecap:butt;stroke-linejoin:miter;stroke:rgb(0%,0%,0%);stroke-opacity:1;stroke-miterlimit:10;" d="M 2.9265 -1.769937 C 2.9265 0.823813 0.821031 2.925375 -1.772719 2.925375 C -4.366469 2.925375 -6.468031 0.823813 -6.468031 -1.769937 C -6.468031 -4.363687 -4.366469 -6.469156 -1.772719 -6.469156 C 0.821031 -6.469156 2.9265 -4.363687 2.9265 -1.769937 Z M 2.9265 -1.769937 " transform="matrix(1,0,0,-1,73.636,60.316)"/>
<path style="fill-rule:nonzero;fill:rgb(90.979004%,64.704895%,64.704895%);fill-opacity:1;stroke-width:0.3985;stroke-linecap:butt;stroke-linejoin:miter;stroke:rgb(0%,0%,0%);stroke-opacity:1;stroke-miterlimit:10;" d="M 2.9265 -40.750406 C 2.9265 -38.156656 0.821031 -36.051187 -1.772719 -36.051187 C -4.366469 -36.051187 -6.468031 -38.156656 -6.468031 -40.750406 C -6.468031 -43.344156 -4.366469 -45.445719 -1.772719 -45.445719 C 0.821031 -45.445719 2.9265 -43.344156 2.9265 -40.750406 Z M 2.9265 -40.750406 " transform="matrix(1,0,0,-1,73.636,60.316)"/>
<path style="fill-rule:nonzero;fill:rgb(84.70459%,97.254944%,84.70459%);fill-opacity:1;stroke-width:0.3985;stroke-linecap:butt;stroke-linejoin:miter;stroke:rgb(0%,0%,0%);stroke-opacity:1;stroke-miterlimit:10;" d="M 56.074938 35.433188 C 56.074938 38.026938 53.973375 40.1285 51.379625 40.1285 C 48.785875 40.1285 46.680406 38.026938 46.680406 35.433188 C 46.680406 32.839438 48.785875 30.737875 51.379625 30.737875 C 53.973375 30.737875 56.074938 32.839438 56.074938 35.433188 Z M 56.074938 35.433188 " transform="matrix(1,0,0,-1,73.636,60.316)"/>
<g clip-path="url(#clip3)" clip-rule="nonzero">
<path style=" stroke:none;fill-rule:nonzero;fill:rgb(90.979004%,64.704895%,64.704895%);fill-opacity:1;" d="M 129.710938 120.554688 C 129.710938 117.960938 127.609375 115.855469 125.015625 115.855469 C 122.421875 115.855469 120.316406 117.960938 120.316406 120.554688 C 120.316406 123.148438 122.421875 125.25 125.015625 125.25 C 127.609375 125.25 129.710938 123.148438 129.710938 120.554688 Z M 129.710938 120.554688 "/>
</g>
<g clip-path="url(#clip4)" clip-rule="nonzero">
<path style="fill:none;stroke-width:0.3985;stroke-linecap:butt;stroke-linejoin:miter;stroke:rgb(0%,0%,0%);stroke-opacity:1;stroke-miterlimit:10;" d="M 56.074938 -60.238687 C 56.074938 -57.644937 53.973375 -55.539469 51.379625 -55.539469 C 48.785875 -55.539469 46.680406 -57.644937 46.680406 -60.238687 C 46.680406 -62.832437 48.785875 -64.934 51.379625 -64.934 C 53.973375 -64.934 56.074938 -62.832437 56.074938 -60.238687 Z M 56.074938 -60.238687 " transform="matrix(1,0,0,-1,73.636,60.316)"/>
</g>
<g clip-path="url(#clip5)" clip-rule="nonzero">
<path style=" stroke:none;fill-rule:nonzero;fill:rgb(90.979004%,64.704895%,64.704895%);fill-opacity:1;" d="M 163.371094 120.554688 C 163.371094 117.960938 161.269531 115.855469 158.675781 115.855469 C 156.082031 115.855469 153.980469 117.960938 153.980469 120.554688 C 153.980469 123.148438 156.082031 125.25 158.675781 125.25 C 161.269531 125.25 163.371094 123.148438 163.371094 120.554688 Z M 163.371094 120.554688 "/>
</g>
<g clip-path="url(#clip6)" clip-rule="nonzero">
<path style="fill:none;stroke-width:0.3985;stroke-linecap:butt;stroke-linejoin:miter;stroke:rgb(0%,0%,0%);stroke-opacity:1;stroke-miterlimit:10;" d="M 89.735094 -60.238687 C 89.735094 -57.644937 87.633531 -55.539469 85.039781 -55.539469 C 82.446031 -55.539469 80.344469 -57.644937 80.344469 -60.238687 C 80.344469 -62.832437 82.446031 -64.934 85.039781 -64.934 C 87.633531 -64.934 89.735094 -62.832437 89.735094 -60.238687 Z M 89.735094 -60.238687 " transform="matrix(1,0,0,-1,73.636,60.316)"/>
</g>
<path style="fill-rule:nonzero;fill:rgb(84.70459%,97.254944%,84.70459%);fill-opacity:1;stroke-width:0.3985;stroke-linecap:butt;stroke-linejoin:miter;stroke:rgb(0%,0%,0%);stroke-opacity:1;stroke-miterlimit:10;" d="M 89.735094 15.944906 C 89.735094 18.538656 87.633531 20.640219 85.039781 20.640219 C 82.446031 20.640219 80.344469 18.538656 80.344469 15.944906 C 80.344469 13.351156 82.446031 11.249594 85.039781 11.249594 C 87.633531 11.249594 89.735094 13.351156 89.735094 15.944906 Z M 89.735094 15.944906 " transform="matrix(1,0,0,-1,73.636,60.316)"/>
<path style="fill-rule:nonzero;fill:rgb(84.70459%,97.254944%,84.70459%);fill-opacity:1;stroke-width:0.3985;stroke-linecap:butt;stroke-linejoin:miter;stroke:rgb(0%,0%,0%);stroke-opacity:1;stroke-miterlimit:10;" d="M 105.680406 -1.769937 C 105.680406 0.823813 103.578844 2.925375 100.985094 2.925375 C 98.391344 2.925375 96.289781 0.823813 96.289781 -1.769937 C 96.289781 -4.363687 98.391344 -6.469156 100.985094 -6.469156 C 103.578844 -6.469156 105.680406 -4.363687 105.680406 -1.769937 Z M 105.680406 -1.769937 " transform="matrix(1,0,0,-1,73.636,60.316)"/>
<g clip-path="url(#clip7)" clip-rule="nonzero">
<path style=" stroke:none;fill-rule:nonzero;fill:rgb(90.979004%,64.704895%,64.704895%);fill-opacity:1;" d="M 179.316406 120.554688 C 179.316406 117.960938 177.214844 115.855469 174.621094 115.855469 C 172.027344 115.855469 169.925781 117.960938 169.925781 120.554688 C 169.925781 123.148438 172.027344 125.25 174.621094 125.25 C 177.214844 125.25 179.316406 123.148438 179.316406 120.554688 Z M 179.316406 120.554688 "/>
</g>
<g clip-path="url(#clip8)" clip-rule="nonzero">
<path style="fill:none;stroke-width:0.3985;stroke-linecap:butt;stroke-linejoin:miter;stroke:rgb(0%,0%,0%);stroke-opacity:1;stroke-miterlimit:10;" d="M 105.680406 -60.238687 C 105.680406 -57.644937 103.578844 -55.539469 100.985094 -55.539469 C 98.391344 -55.539469 96.289781 -57.644937 96.289781 -60.238687 C 96.289781 -62.832437 98.391344 -64.934 100.985094 -64.934 C 103.578844 -64.934 105.680406 -62.832437 105.680406 -60.238687 Z M 105.680406 -60.238687 " transform="matrix(1,0,0,-1,73.636,60.316)"/>
</g>
<path style="fill-rule:nonzero;fill:rgb(90.979004%,64.704895%,64.704895%);fill-opacity:1;stroke-width:0.3985;stroke-linecap:butt;stroke-linejoin:miter;stroke:rgb(0%,0%,0%);stroke-opacity:1;stroke-miterlimit:10;" d="M -50.225844 -21.258219 C -50.225844 -18.664469 -52.327406 -16.562906 -54.921156 -16.562906 C -57.514906 -16.562906 -59.616469 -18.664469 -59.616469 -21.258219 C -59.616469 -23.851969 -57.514906 -25.957437 -54.921156 -25.957437 C -52.327406 -25.957437 -50.225844 -23.851969 -50.225844 -21.258219 Z M -50.225844 -21.258219 " transform="matrix(1,0,0,-1,73.636,60.316)"/>
</g>
</svg>
