<?xml version="1.0" encoding="UTF-8"?>
<svg xmlns="http://www.w3.org/2000/svg" xmlns:xlink="http://www.w3.org/1999/xlink" width="65.776pt" height="29.745pt" viewBox="0 0 65.776 29.745" version="1.1">
<defs>
<clipPath id="clip1">
  <path d="M 18 0 L 41 0 L 41 29.746094 L 18 29.746094 Z M 18 0 "/>
</clipPath>
</defs>
<g id="surface1">
<path style="fill:none;stroke-width:0.3985;stroke-linecap:butt;stroke-linejoin:miter;stroke:rgb(0%,0%,0%);stroke-opacity:1;stroke-miterlimit:10;" d="M -31.891906 7.087844 L -14.173156 7.087844 " transform="matrix(1,0,0,-1,32.888,14.873)"/>
<path style="fill:none;stroke-width:0.3985;stroke-linecap:butt;stroke-linejoin:miter;stroke:rgb(0%,0%,0%);stroke-opacity:1;stroke-miterlimit:10;" d="M -31.891906 -7.087938 L -14.173156 -7.087938 " transform="matrix(1,0,0,-1,32.888,14.873)"/>
<path style="fill:none;stroke-width:0.3985;stroke-linecap:butt;stroke-linejoin:miter;stroke:rgb(0%,0%,0%);stroke-opacity:1;stroke-miterlimit:10;" d="M 7.088563 10.630812 L 31.889344 10.630812 " transform="matrix(1,0,0,-1,32.888,14.873)"/>
<path style="fill:none;stroke-width:0.3985;stroke-linecap:butt;stroke-linejoin:miter;stroke:rgb(0%,0%,0%);stroke-opacity:1;stroke-miterlimit:10;" d="M 7.088563 -10.630906 L 31.889344 -10.630906 " transform="matrix(1,0,0,-1,32.888,14.873)"/>
<g clip-path="url(#clip1)" clip-rule="nonzero">
<path style="fill:none;stroke-width:0.3985;stroke-linecap:butt;stroke-linejoin:miter;stroke:rgb(0%,0%,0%);stroke-opacity:1;stroke-miterlimit:10;" d="M -14.173156 -14.173875 L 7.088563 -14.173875 L 7.088563 14.173781 L -14.173156 14.173781 Z M -14.173156 -14.173875 " transform="matrix(1,0,0,-1,32.888,14.873)"/>
</g>
</g>
</svg>
