<?xml version="1.0" encoding="UTF-8"?>
<svg xmlns="http://www.w3.org/2000/svg" xmlns:xlink="http://www.w3.org/1999/xlink" width="242.941pt" height="40.973pt" viewBox="0 0 242.941 40.973" version="1.1">
<defs>
<clipPath id="clip1">
  <path d="M 224 7 L 242.941406 7 L 242.941406 9 L 224 9 Z M 224 7 "/>
</clipPath>
<clipPath id="clip2">
  <path d="M 224 32 L 242.941406 32 L 242.941406 34 L 224 34 Z M 224 32 "/>
</clipPath>
<clipPath id="clip3">
  <path d="M 85 0 L 87 0 L 87 40.972656 L 85 40.972656 Z M 85 0 "/>
</clipPath>
<clipPath id="clip4">
  <path d="M 64 39 L 87 39 L 87 40.972656 L 64 40.972656 Z M 64 39 "/>
</clipPath>
<clipPath id="clip5">
  <path d="M 64 0 L 65 0 L 65 40.972656 L 64 40.972656 Z M 64 0 "/>
</clipPath>
<clipPath id="clip6">
  <path d="M 181 0 L 182 0 L 182 40.972656 L 181 40.972656 Z M 181 0 "/>
</clipPath>
<clipPath id="clip7">
  <path d="M 160 39 L 182 39 L 182 40.972656 L 160 40.972656 Z M 160 39 "/>
</clipPath>
<clipPath id="clip8">
  <path d="M 160 0 L 161 0 L 161 40.972656 L 160 40.972656 Z M 160 0 "/>
</clipPath>
<clipPath id="clip9">
  <path d="M 224 0 L 225 0 L 225 40.972656 L 224 40.972656 Z M 224 0 "/>
</clipPath>
<clipPath id="clip10">
  <path d="M 202 39 L 225 39 L 225 40.972656 L 202 40.972656 Z M 202 39 "/>
</clipPath>
<clipPath id="clip11">
  <path d="M 202 0 L 204 0 L 204 40.972656 L 202 40.972656 Z M 202 0 "/>
</clipPath>
</defs>
<g id="surface1">
<path style="fill:none;stroke-width:0.3985;stroke-linecap:butt;stroke-linejoin:miter;stroke:rgb(0%,0%,0%);stroke-opacity:1;stroke-miterlimit:10;" d="M -77.955375 -7.08575 L -56.693656 -7.08575 " transform="matrix(1,0,0,-1,121.471,22.258)"/>
<path style="fill:none;stroke-width:0.3985;stroke-linecap:butt;stroke-linejoin:miter;stroke:rgb(0%,0%,0%);stroke-opacity:1;stroke-miterlimit:10;" d="M -35.431938 14.172062 L -17.717094 14.172062 " transform="matrix(1,0,0,-1,121.471,22.258)"/>
<path style="fill:none;stroke-width:0.3985;stroke-linecap:butt;stroke-linejoin:miter;stroke:rgb(0%,0%,0%);stroke-opacity:1;stroke-miterlimit:10;" d="M -35.431938 -10.628719 L -17.717094 -10.628719 " transform="matrix(1,0,0,-1,121.471,22.258)"/>
<path style="fill:none;stroke-width:0.3985;stroke-linecap:butt;stroke-linejoin:miter;stroke:rgb(0%,0%,0%);stroke-opacity:1;stroke-miterlimit:10;" d="M 60.236031 14.172062 L 81.49775 14.172062 " transform="matrix(1,0,0,-1,121.471,22.258)"/>
<path style="fill:none;stroke-width:0.3985;stroke-linecap:butt;stroke-linejoin:miter;stroke:rgb(0%,0%,0%);stroke-opacity:1;stroke-miterlimit:10;" d="M 60.236031 -10.628719 L 81.49775 -10.628719 " transform="matrix(1,0,0,-1,121.471,22.258)"/>
<path style="fill:none;stroke-width:0.3985;stroke-linecap:butt;stroke-linejoin:miter;stroke:rgb(0%,0%,0%);stroke-opacity:1;stroke-miterlimit:10;" d="M -77.955375 10.629094 L -56.693656 10.629094 " transform="matrix(1,0,0,-1,121.471,22.258)"/>
<path style="fill:none;stroke-width:0.3985;stroke-linecap:butt;stroke-linejoin:miter;stroke:rgb(0%,0%,0%);stroke-opacity:1;stroke-miterlimit:10;" d="M 17.7165 -7.08575 L 38.978219 -7.08575 " transform="matrix(1,0,0,-1,121.471,22.258)"/>
<path style="fill:none;stroke-width:0.3985;stroke-linecap:butt;stroke-linejoin:miter;stroke:rgb(0%,0%,0%);stroke-opacity:1;stroke-miterlimit:10;" d="M 17.7165 10.629094 L 38.978219 10.629094 " transform="matrix(1,0,0,-1,121.471,22.258)"/>
<path style="fill:none;stroke-width:0.3985;stroke-linecap:butt;stroke-linejoin:miter;stroke:rgb(0%,0%,0%);stroke-opacity:1;stroke-miterlimit:10;" d="M -120.474906 10.629094 L -99.213188 10.629094 " transform="matrix(1,0,0,-1,121.471,22.258)"/>
<path style="fill:none;stroke-width:0.3985;stroke-linecap:butt;stroke-linejoin:miter;stroke:rgb(0%,0%,0%);stroke-opacity:1;stroke-miterlimit:10;" d="M -120.474906 -7.08575 L -99.213188 -7.08575 " transform="matrix(1,0,0,-1,121.471,22.258)"/>
<g clip-path="url(#clip1)" clip-rule="nonzero">
<path style="fill:none;stroke-width:0.3985;stroke-linecap:butt;stroke-linejoin:miter;stroke:rgb(0%,0%,0%);stroke-opacity:1;stroke-miterlimit:10;" d="M 102.755562 14.172062 L 120.474312 14.172062 " transform="matrix(1,0,0,-1,121.471,22.258)"/>
</g>
<g clip-path="url(#clip2)" clip-rule="nonzero">
<path style="fill:none;stroke-width:0.3985;stroke-linecap:butt;stroke-linejoin:miter;stroke:rgb(0%,0%,0%);stroke-opacity:1;stroke-miterlimit:10;" d="M 102.755562 -10.628719 L 120.474312 -10.628719 " transform="matrix(1,0,0,-1,121.471,22.258)"/>
</g>
<path style="fill:none;stroke-width:0.3985;stroke-linecap:butt;stroke-linejoin:miter;stroke:rgb(0%,0%,0%);stroke-opacity:1;stroke-miterlimit:10;" d="M -99.213188 17.715031 L -77.955375 17.715031 " transform="matrix(1,0,0,-1,121.471,22.258)"/>
<path style="fill:none;stroke-width:0.3985;stroke-linecap:butt;stroke-linejoin:miter;stroke:rgb(0%,0%,0%);stroke-opacity:1;stroke-miterlimit:10;" d="M -77.955375 17.715031 L -77.955375 -14.171688 " transform="matrix(1,0,0,-1,121.471,22.258)"/>
<path style="fill:none;stroke-width:0.3985;stroke-linecap:butt;stroke-linejoin:miter;stroke:rgb(0%,0%,0%);stroke-opacity:1;stroke-miterlimit:10;" d="M -77.955375 -14.171688 L -99.213188 -14.171688 " transform="matrix(1,0,0,-1,121.471,22.258)"/>
<path style="fill:none;stroke-width:0.3985;stroke-linecap:butt;stroke-linejoin:miter;stroke:rgb(0%,0%,0%);stroke-opacity:1;stroke-miterlimit:10;" d="M -99.213188 -14.171688 L -99.213188 17.715031 " transform="matrix(1,0,0,-1,121.471,22.258)"/>
<path style="fill:none;stroke-width:0.3985;stroke-linecap:butt;stroke-linejoin:miter;stroke:rgb(0%,0%,0%);stroke-opacity:1;stroke-miterlimit:10;" d="M -56.693656 21.261906 L -35.431938 21.261906 " transform="matrix(1,0,0,-1,121.471,22.258)"/>
<g clip-path="url(#clip3)" clip-rule="nonzero">
<path style="fill:none;stroke-width:0.3985;stroke-linecap:butt;stroke-linejoin:miter;stroke:rgb(0%,0%,0%);stroke-opacity:1;stroke-miterlimit:10;" d="M -35.431938 21.261906 L -35.431938 -17.718563 " transform="matrix(1,0,0,-1,121.471,22.258)"/>
</g>
<g clip-path="url(#clip4)" clip-rule="nonzero">
<path style="fill:none;stroke-width:0.3985;stroke-linecap:butt;stroke-linejoin:miter;stroke:rgb(0%,0%,0%);stroke-opacity:1;stroke-miterlimit:10;" d="M -35.431938 -17.718563 L -56.693656 -17.718563 " transform="matrix(1,0,0,-1,121.471,22.258)"/>
</g>
<g clip-path="url(#clip5)" clip-rule="nonzero">
<path style="fill:none;stroke-width:0.3985;stroke-linecap:butt;stroke-linejoin:miter;stroke:rgb(0%,0%,0%);stroke-opacity:1;stroke-miterlimit:10;" d="M -56.693656 -17.718563 L -56.693656 21.261906 " transform="matrix(1,0,0,-1,121.471,22.258)"/>
</g>
<path style="fill:none;stroke-width:0.3985;stroke-linecap:butt;stroke-linejoin:miter;stroke:rgb(0%,0%,0%);stroke-opacity:1;stroke-miterlimit:10;" d="M 38.978219 21.261906 L 60.236031 21.261906 " transform="matrix(1,0,0,-1,121.471,22.258)"/>
<g clip-path="url(#clip6)" clip-rule="nonzero">
<path style="fill:none;stroke-width:0.3985;stroke-linecap:butt;stroke-linejoin:miter;stroke:rgb(0%,0%,0%);stroke-opacity:1;stroke-miterlimit:10;" d="M 60.236031 21.261906 L 60.236031 -17.718563 " transform="matrix(1,0,0,-1,121.471,22.258)"/>
</g>
<g clip-path="url(#clip7)" clip-rule="nonzero">
<path style="fill:none;stroke-width:0.3985;stroke-linecap:butt;stroke-linejoin:miter;stroke:rgb(0%,0%,0%);stroke-opacity:1;stroke-miterlimit:10;" d="M 60.236031 -17.718563 L 38.978219 -17.718563 " transform="matrix(1,0,0,-1,121.471,22.258)"/>
</g>
<g clip-path="url(#clip8)" clip-rule="nonzero">
<path style="fill:none;stroke-width:0.3985;stroke-linecap:butt;stroke-linejoin:miter;stroke:rgb(0%,0%,0%);stroke-opacity:1;stroke-miterlimit:10;" d="M 38.978219 -17.718563 L 38.978219 21.261906 " transform="matrix(1,0,0,-1,121.471,22.258)"/>
</g>
<path style="fill:none;stroke-width:0.3985;stroke-linecap:butt;stroke-linejoin:miter;stroke:rgb(0%,0%,0%);stroke-opacity:1;stroke-miterlimit:10;" d="M 81.49775 21.261906 L 102.755562 21.261906 " transform="matrix(1,0,0,-1,121.471,22.258)"/>
<g clip-path="url(#clip9)" clip-rule="nonzero">
<path style="fill:none;stroke-width:0.3985;stroke-linecap:butt;stroke-linejoin:miter;stroke:rgb(0%,0%,0%);stroke-opacity:1;stroke-miterlimit:10;" d="M 102.755562 21.261906 L 102.755562 -17.718563 " transform="matrix(1,0,0,-1,121.471,22.258)"/>
</g>
<g clip-path="url(#clip10)" clip-rule="nonzero">
<path style="fill:none;stroke-width:0.3985;stroke-linecap:butt;stroke-linejoin:miter;stroke:rgb(0%,0%,0%);stroke-opacity:1;stroke-miterlimit:10;" d="M 102.755562 -17.718563 L 81.49775 -17.718563 " transform="matrix(1,0,0,-1,121.471,22.258)"/>
</g>
<g clip-path="url(#clip11)" clip-rule="nonzero">
<path style="fill:none;stroke-width:0.3985;stroke-linecap:butt;stroke-linejoin:miter;stroke:rgb(0%,0%,0%);stroke-opacity:1;stroke-miterlimit:10;" d="M 81.49775 -17.718563 L 81.49775 21.261906 " transform="matrix(1,0,0,-1,121.471,22.258)"/>
</g>
</g>
</svg>
